<mxfile host="app.diagrams.net" modified="2023-03-28T16:08:03.415Z" agent="Mozilla/5.0 (X11; Linux x86_64) AppleWebKit/537.36 (KHTML, like Gecko) Chrome/111.0.0.0 Safari/537.36" etag="0pCxQm8V1QWqNJSgmTg2" version="21.1.1" type="github">
  <diagram name="Страница 1" id="8RwJ9O9J6VrnGqhdWcJW">
    <mxGraphModel dx="2049" dy="1127" grid="1" gridSize="10" guides="1" tooltips="1" connect="1" arrows="1" fold="1" page="0" pageScale="1" pageWidth="850" pageHeight="1100" math="0" shadow="0">
      <root>
        <mxCell id="0" />
        <mxCell id="1" parent="0" />
      </root>
    </mxGraphModel>
  </diagram>
</mxfile>
